<svg xmlns="http://www.w3.org/2000/svg" version="1.1" xmlns:xlink="http://www.w3.org/1999/xlink" xmlns:svgjs="http://svgjs.dev/svgjs" width="1500" height="405" viewBox="0 0 1500 405"><g transform="matrix(1,0,0,1,-0.9090909090909918,-0.6505070925480823)"><svg viewBox="0 0 396 107" data-background-color="#ffffff" preserveAspectRatio="xMidYMid meet" height="405" width="1500" xmlns="http://www.w3.org/2000/svg" xmlns:xlink="http://www.w3.org/1999/xlink"><g id="tight-bounds" transform="matrix(1,0,0,1,0.2400000000000091,0.17186236766085017)"><svg viewBox="0 0 395.52 106.65627526467831" height="106.65627526467831" width="395.52"><g><svg viewBox="0 0 586.682619826953 158.2053574870199" height="106.65627526467831" width="395.52"><g transform="matrix(1,0,0,1,191.16261982695295,9.300449080323034)"><svg viewBox="0 0 395.52 139.60445932637384" height="139.60445932637384" width="395.52"><g id="textblocktransform"><svg viewBox="0 0 395.52 139.60445932637384" height="139.60445932637384" width="395.52" id="textblock"><g><svg viewBox="0 0 395.52 139.60445932637384" height="139.60445932637384" width="395.52"><g transform="matrix(1,0,0,1,0,0)"><svg width="395.52" viewBox="0.93 -43.36 123.94 43.75" height="139.60445932637384" data-palette-color="#0074d9"><path d="M11.43 0.39L11.43 0.39Q8.52 0.39 6.13-0.73 3.74-1.86 2.33-4.06 0.93-6.27 0.93-9.5L0.93-9.5 0.93-20.26 9.42-20.26 9.42-10.01Q9.42-8.89 9.88-8.2 10.33-7.52 11.33-7.52L11.33-7.52Q13.26-7.52 13.26-9.89L13.26-9.89 13.26-42.97 21.92-42.97 21.92-10.74Q21.92-7.32 20.58-4.82 19.24-2.32 16.87-0.96 14.5 0.39 11.43 0.39ZM35.47 0.39L35.47 0.39Q30.32 0.39 27.6-2.72 24.88-5.83 24.88-11.72L24.88-11.72 24.88-32.13Q24.88-37.65 27.57-40.5 30.27-43.36 35.47-43.36L35.47-43.36Q40.67-43.36 43.37-40.5 46.07-37.65 46.07-32.13L46.07-32.13 46.07-11.72Q46.07-5.83 43.34-2.72 40.62 0.39 35.47 0.39ZM35.54-7.52L35.54-7.52Q37.5-7.52 37.5-11.3L37.5-11.3 37.5-32.28Q37.5-35.45 35.59-35.45L35.59-35.45Q33.44-35.45 33.44-32.2L33.44-32.2 33.44-11.25Q33.44-9.25 33.93-8.39 34.42-7.52 35.54-7.52ZM61.18 0L49.53 0 49.53-42.97 61.18-42.97Q65.86-42.97 68-40.69 70.14-38.4 70.14-33.15L70.14-33.15 70.14-31.27Q70.14-28.25 69.05-26.37 67.96-24.49 65.74-23.9L65.74-23.9Q68.65-23.17 69.64-20.47 70.62-17.77 70.62-13.89L70.62-13.89Q70.62-9.72 69.84-6.59 69.06-3.47 67.01-1.73 64.96 0 61.18 0L61.18 0ZM57.93-36.33L57.93-26.78 59.69-26.78Q60.88-26.78 61.23-27.71 61.57-28.64 61.57-29.93L61.57-29.93 61.57-34.25Q61.57-36.33 59.74-36.33L59.74-36.33 57.93-36.33ZM58.78-7.57L58.78-7.57Q62.13-7.57 62.13-10.74L62.13-10.74 62.13-16.11Q62.13-17.94 61.58-19.01 61.03-20.07 59.52-20.07L59.52-20.07 57.93-20.07 57.93-7.62Q58.47-7.57 58.78-7.57ZM81.36 0L73.06 0 73.06-42.97 81.36-42.97 81.36 0ZM93.42 0L84.78 0 84.78-42.97 101.97-42.97 101.97-34.59 93.42-34.59 93.42-27.76 101.53-27.76 101.53-19.48 93.42-19.48 93.42 0ZM118.03 0L109.92 0 109.92-14.14 103.06-42.97 111.58-42.97 113.98-28.42 116.37-42.97 124.87-42.97 118.03-14.14 118.03 0Z" opacity="1" transform="matrix(1,0,0,1,0,0)" fill="#0074d9" class="wordmark-text-0" data-fill-palette-color="primary" id="text-0"></path></svg></g></svg></g></svg></g></svg></g><g><svg viewBox="0 0 158.2053574870199 158.2053574870199" height="158.2053574870199" width="158.2053574870199"><g><svg xmlns="http://www.w3.org/2000/svg" xmlns:xlink="http://www.w3.org/1999/xlink" version="1.0" x="0" y="0" viewBox="20 20 60 60" enable-background="new 0 0 100 100" xml:space="preserve" height="158.2053574870199" width="158.2053574870199" class="icon-icon-0" data-fill-palette-color="accent" id="icon-0"><path d="M20 26.667c3.682 0 6.667 2.988 6.667 6.667v30C26.667 72.539 34.128 80 43.333 80 52.539 80 60 72.539 60 63.334V40c0-1.842 1.491-3.333 3.333-3.333 1.843 0 3.334 1.491 3.334 3.333v16.666C66.667 64.023 72.637 70 80 70v-6.666c-3.682 0-6.667-2.988-6.667-6.668V40c0-5.524-4.479-10-10-10-5.521 0-10 4.476-10 10v23.334c0 5.523-4.479 10-10 10-5.521 0-10-4.477-10-10v-30C33.333 25.973 27.363 20 20 20V26.667z" fill="#aaaaaa" data-fill-palette-color="accent"></path></svg></g></svg></g></svg></g><defs></defs></svg><rect width="395.52" height="106.65627526467831" fill="none" stroke="none" visibility="hidden"></rect></g></svg></g></svg>